<?xml version="1.0" encoding="UTF-8"?>
<svg version="1.1" xmlns="http://www.w3.org/2000/svg" width="256" height="256">
<path d="M0 0 C1.47392852 -0.00680061 2.94784853 -0.01571725 4.42175293 -0.02655029 C8.37238497 -0.0490609 12.32235353 -0.0406265 16.272995 -0.02465487 C20.44015065 -0.01184716 24.60725578 -0.02377668 28.77441406 -0.03158569 C35.7676801 -0.04063955 42.76068068 -0.02880729 49.75390625 -0.00488281 C57.79754541 0.02232036 65.84055052 0.01350314 73.88417435 -0.01401484 C80.83506252 -0.03682745 87.78576169 -0.03984711 94.73667526 -0.02682149 C98.86854162 -0.01909322 103.00011162 -0.01779973 107.13195801 -0.03450394 C111.01971071 -0.04912825 114.90665943 -0.0386066 118.79432678 -0.01003265 C120.20665666 -0.00351625 121.61905625 -0.00515362 123.03135681 -0.01634598 C142.07723229 -0.15317084 157.28089756 6.25019898 171.19921875 19.26416016 C184.41358462 33.04324252 188.95422149 48.97869706 188.88842773 67.64257812 C188.89414278 69.12063102 188.90111139 70.59867952 188.90922546 72.07672119 C188.92704784 76.06035129 188.92600914 80.0437598 188.92028308 84.02741766 C188.917175 87.36704126 188.92330163 90.70662328 188.92932183 94.04624093 C188.94332989 101.93223022 188.94183715 109.81811109 188.93041992 117.70410156 C188.91894509 125.80838454 188.9330121 133.91233634 188.9598164 142.01657569 C188.98205111 149.00380288 188.98859327 155.99092671 188.98273998 162.97818673 C188.97938739 167.13851175 188.9816713 171.29862464 188.99899101 175.45891953 C189.01458255 179.37437479 189.0103713 183.28934368 188.99168587 187.20478058 C188.9880333 188.63127939 188.99100963 190.05781524 189.00157166 191.48427963 C189.13152245 210.50566545 182.65967562 226.31029586 169.3203125 239.84228516 C155.45667811 252.7261574 139.60977134 257.44167377 120.96875 257.29394531 C119.49482148 257.30074593 118.02090147 257.30966256 116.54699707 257.32049561 C112.59636503 257.34300621 108.64639647 257.33457181 104.695755 257.31860018 C100.52859935 257.30579248 96.36149422 257.31772199 92.19433594 257.32553101 C85.2010699 257.33458486 78.20806932 257.3227526 71.21484375 257.29882812 C63.17120459 257.27162496 55.12819948 257.28044217 47.08457565 257.30796015 C40.13368748 257.33077276 33.18298831 257.33379242 26.23207474 257.32076681 C22.10020838 257.31303854 17.96863838 257.31174504 13.83679199 257.32844925 C9.94903929 257.34307356 6.06209057 257.33255192 2.17442322 257.30397797 C0.76209334 257.29746156 -0.65030625 257.29909893 -2.06260681 257.31029129 C-21.10848229 257.44711616 -36.31214756 251.04374633 -50.23046875 238.02978516 C-63.44483462 224.25070279 -67.98547149 208.31524825 -67.91967773 189.65136719 C-67.92539278 188.17331429 -67.93236139 186.6952658 -67.94047546 185.21722412 C-67.95829784 181.23359403 -67.95725914 177.25018551 -67.95153308 173.26652765 C-67.948425 169.92690406 -67.95455163 166.58732204 -67.96057183 163.24770439 C-67.97457989 155.3617151 -67.97308715 147.47583422 -67.96166992 139.58984375 C-67.95019509 131.48556077 -67.9642621 123.38160897 -67.9910664 115.27736962 C-68.01330111 108.29014243 -68.01984327 101.3030186 -68.01398998 94.31575859 C-68.01063739 90.15543356 -68.0129213 85.99532067 -68.03024101 81.83502579 C-68.04583255 77.91957053 -68.0416213 74.00460163 -68.02293587 70.08916473 C-68.0192833 68.66266592 -68.02225963 67.23613007 -68.03282166 65.80966568 C-68.16277245 46.78827986 -61.69092562 30.98364945 -48.3515625 17.45166016 C-34.48792811 4.56778791 -18.64102134 -0.14772846 0 0 Z " fill="#FEFEFE" transform="translate(67.515625,-0.64697265625)"/>
<path d="M0 0 C3.76103929 2.22243231 6.82451554 5.0174188 10 8 C11.30324219 9.15048828 11.30324219 9.15048828 12.6328125 10.32421875 C18.86105617 16.07411769 18.86105617 16.07411769 19.44140625 19.94140625 C18.92739297 23.50310892 17.85804673 25.36848285 15.8125 28.3125 C15.17957031 29.26253906 14.54664063 30.21257813 13.89453125 31.19140625 C13.26933594 32.11824219 12.64414063 33.04507813 12 34 C8.14450257 39.67603148 8.14450257 39.67603148 7.0625 46.25 C7.371875 47.4875 7.68125 48.725 8 50 C10.03044741 60.20412732 10.40418347 70.20304544 10.375 80.5625 C10.3737915 81.35780121 10.37258301 82.15310242 10.37133789 82.97250366 C10.32022189 95.38449783 9.63786611 107.05607987 6 119 C5.73155273 119.90427734 5.46310547 120.80855469 5.18652344 121.74023438 C-4.8654966 154.80169564 -24.06783771 185.98731074 -55 203 C-87.06217303 219.87525105 -126.69383471 231.07873523 -162.52685547 220.23535156 C-166.8381422 218.81854248 -171.09662754 217.27875224 -175.34765625 215.69140625 C-179.27736187 214.22686504 -183.19979096 213.08161652 -187.25 212 C-193.97621211 209.95364278 -198.42965413 206.8079198 -202.37109375 200.96875 C-205.5346189 194.92630749 -206.00908758 188.68955475 -205 182 C-203.03455069 176.12781743 -200.43159471 171.25895683 -195 168 C-194.22785156 167.76796875 -193.45570313 167.5359375 -192.66015625 167.296875 C-189.08024309 165.55160162 -187.23175126 162.88765124 -184.9375 159.75 C-183.97017462 158.47319005 -183.00003228 157.19851023 -182.02734375 155.92578125 C-181.52960449 155.27303223 -181.03186523 154.6202832 -180.51904297 153.94775391 C-178.11050721 150.85947067 -175.56458743 147.89647917 -173 144.9375 C-172.50129395 144.36056396 -172.00258789 143.78362793 -171.48876953 143.18920898 C-170.48700425 142.03096855 -169.48472928 140.87316874 -168.48193359 139.71582031 C-166.07509942 136.92912664 -163.69175301 134.12274986 -161.3125 131.3125 C-160.85673584 130.77488037 -160.40097168 130.23726074 -159.93139648 129.68334961 C-157.0940764 126.32596508 -154.31829667 122.92491996 -151.5625 119.5 C-146.84201614 113.69861823 -141.77123586 108.25857566 -136.66064453 102.80395508 C-135.48584034 101.52776746 -134.32679898 100.23698468 -133.17919922 98.9362793 C-126.48948352 91.36183563 -119.39773415 84.21160777 -112.25341797 77.06811523 C-110.13088705 74.94339313 -108.01650709 72.81077855 -105.90234375 70.67773438 C-98.57993664 63.32483443 -91.23728465 56.33291882 -83 50 C-82.38286133 49.51394287 -81.76572266 49.02788574 -81.12988281 48.52709961 C-77.981679 46.05438878 -74.78481835 43.64404863 -71.59667969 41.22314453 C-70.07621227 40.05838279 -68.5727503 38.87152124 -67.0703125 37.68359375 C-57.0158752 29.84985195 -46.45141545 23.42575469 -34.375 19.3125 C-25.80097859 16.12110921 -20.43432828 10.20524003 -14.5012207 3.41699219 C-10.36502871 -0.48713179 -5.41977465 -1.23176697 0 0 Z " fill="#F6B85D" transform="translate(221,16)"/>
<path d="M0 0 C0.98484375 0.73347656 1.9696875 1.46695313 2.984375 2.22265625 C3.73203125 2.78855469 4.4796875 3.35445312 5.25 3.9375 C3.9419768 8.30675927 2.24454667 11.92061417 -0.13671875 15.8046875 C-0.82048584 16.92601074 -1.50425293 18.04733398 -2.20874023 19.20263672 C-2.95135934 20.40611015 -3.69428658 21.6093935 -4.4375 22.8125 C-5.20355972 24.06114396 -5.96926146 25.31000763 -6.73461914 26.55908203 C-8.68833877 29.74323358 -10.65042922 32.92213834 -12.61499023 36.09960938 C-13.69837318 37.85390209 -14.7785829 39.61009756 -15.85742188 41.3671875 C-25.43842249 56.95851338 -35.46644404 71.86001097 -46.71875 86.29296875 C-48.12714494 88.12659063 -49.46748498 90.01372747 -50.75 91.9375 C-54.125 93.0625 -54.125 93.0625 -57.75 93.9375 C-58.513125 94.164375 -59.27625 94.39125 -60.0625 94.625 C-61.75 94.9375 -61.75 94.9375 -63.75 93.9375 C-64.34355614 91.28889573 -64.49209269 88.64552678 -64.75 85.9375 C-66.07 85.9375 -67.39 85.9375 -68.75 85.9375 C-69.37795288 91.83089446 -69.37795288 91.83089446 -66.5 96.75 C-64.27554657 98.51945159 -62.02808033 100.23867514 -59.75 101.9375 C-67.70361592 111.28299871 -76.16729053 119.27133242 -85.75 126.9375 C-86.93722656 127.94296875 -86.93722656 127.94296875 -88.1484375 128.96875 C-105.84960633 143.78833321 -129.82391707 156.50514401 -153.25 156.0625 C-154.1678125 156.05347656 -155.085625 156.04445312 -156.03125 156.03515625 C-158.27111556 156.01182432 -160.51041183 155.97909235 -162.75 155.9375 C-164.69039435 151.56252847 -165.77980668 147.74631062 -165.75 142.9375 C-163.40641069 137.46617703 -158.80150724 133.18404698 -154.75 128.9375 C-153.04101041 127.04225823 -151.33262972 125.14646713 -149.625 123.25 C-148.39330078 121.92162109 -148.39330078 121.92162109 -147.13671875 120.56640625 C-144.02146656 117.13504009 -141.13061056 113.54534635 -138.21875 109.94140625 C-134.81270246 105.79702245 -131.29438908 101.75504095 -127.76953125 97.71166992 C-125.00457695 94.53946492 -122.25087006 91.35965555 -119.53125 88.1484375 C-114.74756183 82.50293801 -109.97760592 76.97720707 -104.64550781 71.83398438 C-102.95702745 70.14463411 -101.42438257 68.41817934 -99.890625 66.58984375 C-94.77805347 60.70506443 -89.21712994 55.25556376 -83.69848633 49.75561523 C-81.81671726 47.87920525 -79.94035262 45.99751031 -78.06445312 44.11523438 C-72.1342472 38.18109791 -66.21781056 32.29274751 -59.75 26.9375 C-59.18192627 26.46272217 -58.61385254 25.98794434 -58.02856445 25.4987793 C-14.2636982 -10.69777365 -14.2636982 -10.69777365 0 0 Z " fill="#F6DB5C" transform="translate(201.75,49.0625)"/>
<path d="M0 0 C3.76103929 2.22243231 6.82451554 5.0174188 10 8 C11.30324219 9.15048828 11.30324219 9.15048828 12.6328125 10.32421875 C18.86105617 16.07411769 18.86105617 16.07411769 19.44140625 19.94140625 C18.92739297 23.50310892 17.85804673 25.36848285 15.8125 28.3125 C15.17957031 29.26253906 14.54664063 30.21257813 13.89453125 31.19140625 C13.26933594 32.11824219 12.64414063 33.04507813 12 34 C8.14450257 39.67603148 8.14450257 39.67603148 7.0625 46.25 C7.371875 47.4875 7.68125 48.725 8 50 C10.03044741 60.20412732 10.40418347 70.20304544 10.375 80.5625 C10.3737915 81.35780121 10.37258301 82.15310242 10.37133789 82.97250366 C10.32022189 95.38449783 9.63786611 107.05607987 6 119 C5.73155273 119.90427734 5.46310547 120.80855469 5.18652344 121.74023438 C-4.8654966 154.80169564 -24.06783771 185.98731074 -55 203 C-87.06217303 219.87525105 -126.69383471 231.07873523 -162.52685547 220.23535156 C-166.8381422 218.81854248 -171.09662754 217.27875224 -175.34765625 215.69140625 C-179.27736187 214.22686504 -183.19979096 213.08161652 -187.25 212 C-193.97621211 209.95364278 -198.42965413 206.8079198 -202.37109375 200.96875 C-205.5346189 194.92630749 -206.00908758 188.68955475 -205 182 C-203.03455069 176.12781743 -200.43159471 171.25895683 -195 168 C-194.22785156 167.76796875 -193.45570313 167.5359375 -192.66015625 167.296875 C-189.08024309 165.55160162 -187.23175126 162.88765124 -184.9375 159.75 C-183.97017462 158.47319005 -183.00003228 157.19851023 -182.02734375 155.92578125 C-181.52960449 155.27303223 -181.03186523 154.6202832 -180.51904297 153.94775391 C-178.11050721 150.85947067 -175.56458743 147.89647917 -173 144.9375 C-172.50129395 144.36056396 -172.00258789 143.78362793 -171.48876953 143.18920898 C-170.48700425 142.03096855 -169.48472928 140.87316874 -168.48193359 139.71582031 C-166.07509942 136.92912664 -163.69175301 134.12274986 -161.3125 131.3125 C-160.85673584 130.77488037 -160.40097168 130.23726074 -159.93139648 129.68334961 C-157.0940764 126.32596508 -154.31829667 122.92491996 -151.5625 119.5 C-146.84201614 113.69861823 -141.77123586 108.25857566 -136.66064453 102.80395508 C-135.48584034 101.52776746 -134.32679898 100.23698468 -133.17919922 98.9362793 C-126.48948352 91.36183563 -119.39773415 84.21160777 -112.25341797 77.06811523 C-110.13088705 74.94339313 -108.01650709 72.81077855 -105.90234375 70.67773438 C-98.57993664 63.32483443 -91.23728465 56.33291882 -83 50 C-82.38286133 49.51394287 -81.76572266 49.02788574 -81.12988281 48.52709961 C-77.981679 46.05438878 -74.78481835 43.64404863 -71.59667969 41.22314453 C-70.07621227 40.05838279 -68.5727503 38.87152124 -67.0703125 37.68359375 C-57.0158752 29.84985195 -46.45141545 23.42575469 -34.375 19.3125 C-25.80097859 16.12110921 -20.43432828 10.20524003 -14.5012207 3.41699219 C-10.36502871 -0.48713179 -5.41977465 -1.23176697 0 0 Z M-59.5 44.8125 C-60.87889404 45.87960205 -60.87889404 45.87960205 -62.28564453 46.96826172 C-64.86430697 48.96982326 -67.43358896 50.98276878 -70 53 C-70.88316895 53.68763428 -70.88316895 53.68763428 -71.78417969 54.38916016 C-85.13673678 64.80415469 -97.02912323 76.93764047 -109 88.875 C-109.54247375 89.41479492 -110.08494751 89.95458984 -110.64385986 90.51074219 C-116.09942408 95.94586275 -121.49012294 101.39385498 -126.49707031 107.25195312 C-128.87357124 110.01604453 -131.38162751 112.65427297 -133.875 115.3125 C-138.33681337 120.10839373 -142.56401029 125.03144084 -146.671875 130.13671875 C-149.31407879 133.38627476 -152.0210856 136.57324567 -154.75 139.75 C-155.25329834 140.33644287 -155.75659668 140.92288574 -156.27514648 141.52709961 C-159.46933496 145.24081567 -162.68781697 148.93238647 -165.91918945 152.61376953 C-167.55587336 154.49239378 -169.16917967 156.38930641 -170.78125 158.2890625 C-172.90301725 160.78045302 -175.10127488 163.1387413 -177.40625 165.4609375 C-182.87239904 170.96677405 -182.87239904 170.96677405 -185.10351562 178.12060547 C-184.60072523 182.69097013 -183.19463149 186.86603946 -181.59863281 191.15722656 C-180.83685902 193.50219743 -180.77834626 195.73465085 -180.6875 198.1875 C-180.35628917 200.28090177 -180.35628917 200.28090177 -179 202 C-174.25867422 204.82815924 -169.27984539 206.45829951 -164 208 C-163.30342285 208.20496094 -162.6068457 208.40992188 -161.88916016 208.62109375 C-154.04031884 210.8672901 -146.18596755 212.71813024 -138 213 C-136.76121094 213.0515625 -135.52242187 213.103125 -134.24609375 213.15625 C-117.77232756 213.62212393 -102.48343457 210.42821078 -87 205 C-86.00637451 204.66162109 -86.00637451 204.66162109 -84.99267578 204.31640625 C-74.7754747 200.81929319 -65.33747343 196.41899776 -56 191 C-54.96488281 190.39929688 -53.92976562 189.79859375 -52.86328125 189.1796875 C-25.64325928 172.61743675 -10.25369532 138.38703069 -2.89453125 108.7109375 C-0.74281859 98.85550399 -0.72326261 88.8546992 -0.6875 78.8125 C-0.68364288 78.14107971 -0.67978577 77.46965942 -0.67581177 76.77789307 C-0.33876966 59.43614146 -0.33876966 59.43614146 -5 43 C-6.81200705 41.2047207 -6.81200705 41.2047207 -9.02734375 39.73828125 C-9.81947266 39.17689453 -10.61160156 38.61550781 -11.42773438 38.03710938 C-12.67006836 37.18342773 -12.67006836 37.18342773 -13.9375 36.3125 C-14.76185547 35.73177734 -15.58621094 35.15105469 -16.43554688 34.55273438 C-32.52286836 23.24848329 -45.27544129 33.68311215 -59.5 44.8125 Z " fill="#050504" transform="translate(221,16)"/>
<path d="M0 0 C4.87712794 1.3454146 7.16472443 4.04648113 10.51171875 7.73828125 C12.43025756 9.79157879 14.32716112 11.39721848 16.625 13 C14.52383223 17.56775602 11.64895626 21.67268022 8.90234375 25.8671875 C4.04725975 33.33408236 3.36432009 36.79390746 5.12475586 45.46020508 C6.69263989 53.62321446 6.96483218 61.64589073 6.94067383 69.92504883 C6.93752829 72.16733175 6.96101427 74.40827089 6.98632812 76.65039062 C7.13157125 110.12389093 -5.17385134 142.98201111 -27.375 168 C-28.23006305 169.05421021 -29.0828205 170.11029353 -29.93359375 171.16796875 C-42.17996629 185.93450212 -59.74234722 193.14068889 -77.19580078 200.12207031 C-78.93240733 200.82169357 -80.65454762 201.55719544 -82.37109375 202.3046875 C-96.59623138 208.17682431 -112.3555734 209.35561083 -127.5625 209.375 C-129.36920166 209.37741699 -129.36920166 209.37741699 -131.21240234 209.37988281 C-141.3123383 209.25372123 -150.58042626 207.84984782 -160.125 204.5625 C-161.33671875 204.15128906 -162.5484375 203.74007812 -163.796875 203.31640625 C-166.27171051 202.40590454 -168.63980845 201.46339013 -171.04296875 200.3984375 C-173.78452901 199.24781784 -176.03599665 198.53806869 -178.9375 198.0625 C-184.32735553 196.93310949 -187.94358763 194.95626357 -191.25 190.4375 C-193.25102722 184.32325017 -193.46639148 178.50110547 -190.875 172.5625 C-188.57627035 170.20630211 -187.44414114 169.45206485 -184.5625 168.1875 C-180.17718109 166.20443299 -178.11758902 163.5233925 -175.3359375 159.671875 C-173.0833881 156.60266426 -170.65850544 153.70534199 -168.1875 150.8125 C-167.49116455 149.99313965 -167.49116455 149.99313965 -166.78076172 149.15722656 C-164.29088094 146.23163779 -161.78864013 143.31683854 -159.28125 140.40625 C-158.24987269 139.20844294 -157.21862206 138.01052679 -156.1875 136.8125 C-155.68089844 136.22412354 -155.17429688 135.63574707 -154.65234375 135.02954102 C-151.75911333 131.65615144 -148.94023033 128.24006881 -146.1875 124.75 C-142.79758181 120.45985458 -139.20215712 116.39959827 -135.51953125 112.359375 C-133.65106887 110.30372604 -131.81806264 108.22510099 -130 106.125 C-122.82263072 97.90334835 -115.4205778 89.97040398 -107.6484375 82.30859375 C-105.58166678 80.20986266 -103.65468385 78.05761377 -101.75 75.8125 C-98.87893127 72.45731663 -95.76443735 69.6235753 -92.3984375 66.7734375 C-90.34691028 64.97538083 -88.45980459 63.0842574 -86.5625 61.125 C-82.3432349 56.86508687 -77.81695224 53.09536259 -73.11669922 49.37792969 C-71.85781912 48.38197801 -70.60201535 47.38213368 -69.34814453 46.37988281 C-42.13091659 24.64740311 -42.13091659 24.64740311 -25.75 19.0625 C-20.98601481 17.40402527 -18.05376336 15.39578156 -14.375 12 C-13.715 12 -13.055 12 -12.375 12 C-12.11074219 11.41734375 -11.84648437 10.8346875 -11.57421875 10.234375 C-8.93232201 5.31201366 -5.3919593 1.59761757 0 0 Z M-54.875 38.8125 C-56.25389404 39.87960205 -56.25389404 39.87960205 -57.66064453 40.96826172 C-60.23930697 42.96982326 -62.80858896 44.98276878 -65.375 47 C-66.25816895 47.68763428 -66.25816895 47.68763428 -67.15917969 48.38916016 C-80.51173678 58.80415469 -92.40412323 70.93764047 -104.375 82.875 C-104.91747375 83.41479492 -105.45994751 83.95458984 -106.01885986 84.51074219 C-111.47442408 89.94586275 -116.86512294 95.39385498 -121.87207031 101.25195312 C-124.24857124 104.01604453 -126.75662751 106.65427297 -129.25 109.3125 C-133.71181337 114.10839373 -137.93901029 119.03144084 -142.046875 124.13671875 C-144.68907879 127.38627476 -147.3960856 130.57324567 -150.125 133.75 C-150.62829834 134.33644287 -151.13159668 134.92288574 -151.65014648 135.52709961 C-154.84433496 139.24081567 -158.06281697 142.93238647 -161.29418945 146.61376953 C-162.93087336 148.49239378 -164.54417967 150.38930641 -166.15625 152.2890625 C-168.27801725 154.78045302 -170.47627488 157.1387413 -172.78125 159.4609375 C-178.24739904 164.96677405 -178.24739904 164.96677405 -180.47851562 172.12060547 C-179.97572523 176.69097013 -178.56963149 180.86603946 -176.97363281 185.15722656 C-176.21185902 187.50219743 -176.15334626 189.73465085 -176.0625 192.1875 C-175.73128917 194.28090177 -175.73128917 194.28090177 -174.375 196 C-169.63367422 198.82815924 -164.65484539 200.45829951 -159.375 202 C-158.67842285 202.20496094 -157.9818457 202.40992188 -157.26416016 202.62109375 C-149.41531884 204.8672901 -141.56096755 206.71813024 -133.375 207 C-132.13621094 207.0515625 -130.89742187 207.103125 -129.62109375 207.15625 C-113.14732756 207.62212393 -97.85843457 204.42821078 -82.375 199 C-81.38137451 198.66162109 -81.38137451 198.66162109 -80.36767578 198.31640625 C-70.1504747 194.81929319 -60.71247343 190.41899776 -51.375 185 C-50.33988281 184.39929688 -49.30476562 183.79859375 -48.23828125 183.1796875 C-21.01825928 166.61743675 -5.62869532 132.38703069 1.73046875 102.7109375 C3.88218141 92.85550399 3.90173739 82.8546992 3.9375 72.8125 C3.94135712 72.14107971 3.94521423 71.46965942 3.94918823 70.77789307 C4.28623034 53.43614146 4.28623034 53.43614146 -0.375 37 C-2.18700705 35.2047207 -2.18700705 35.2047207 -4.40234375 33.73828125 C-5.19447266 33.17689453 -5.98660156 32.61550781 -6.80273438 32.03710938 C-8.04506836 31.18342773 -8.04506836 31.18342773 -9.3125 30.3125 C-10.13685547 29.73177734 -10.96121094 29.15105469 -11.81054688 28.55273438 C-27.89786836 17.24848329 -40.65044129 27.68311215 -54.875 38.8125 Z " fill="#4B3717" transform="translate(216.375,22)"/>
<path d="M0 0 C0 3 0 3 -2.00024414 5.32495117 C-2.91926514 6.22189697 -3.83828613 7.11884277 -4.78515625 8.04296875 C-5.52601723 8.77390495 -5.52601723 8.77390495 -6.28184509 9.51960754 C-7.86847514 11.0828096 -9.46484129 12.63557809 -11.0625 14.1875 C-13.14056244 16.21876356 -15.2141759 18.25448637 -17.28515625 20.29296875 C-17.78661163 20.78538055 -18.28806702 21.27779236 -18.80471802 21.78512573 C-22.23172906 25.17370831 -25.46046806 28.67219222 -28.54663086 32.37231445 C-30.55421562 34.62068798 -32.83419864 36.45383334 -35.16008663 38.36179352 C-37.03093778 40.02754612 -38.60419781 41.77209252 -40.22157288 43.68322754 C-43.95443727 48.001363 -47.90976982 52.04394746 -51.95483398 56.06835938 C-53.09753502 57.21127945 -53.09753502 57.21127945 -54.26332092 58.37728882 C-56.7552128 60.86848996 -59.25061647 63.35614087 -61.74609375 65.84375 C-63.48508723 67.58087631 -65.2238585 69.31822509 -66.9624176 71.05578613 C-71.51889525 75.60846211 -76.078369 80.15812581 -80.63848877 84.70715332 C-85.2992292 89.35762892 -89.95710836 94.01096844 -94.61523438 98.6640625 C-103.74070292 107.7788352 -112.8692446 116.8905236 -122 126 C-122 122.0103335 -120.61028236 120.96435255 -118.0625 117.9375 C-116.83080078 116.47183594 -116.83080078 116.47183594 -115.57421875 114.9765625 C-112.46209449 111.37802125 -109.30146479 107.8295454 -106.09765625 104.3125 C-104.30492554 102.33615628 -102.55204773 100.3354327 -100.8125 98.3125 C-96.70541323 93.58983113 -92.39771605 89.05387961 -88.11450195 84.49169922 C-85.17782231 81.35752015 -82.2759707 78.21626131 -79.5 74.9375 C-74.54276219 69.16676675 -68.99476495 63.9191623 -63.58959961 58.57324219 C-60.42954786 55.44570825 -57.29146534 52.29679886 -54.16796875 49.1328125 C-53.17450318 48.13018454 -52.18101335 47.12758062 -51.1875 46.125 C-50.70474609 45.63386719 -50.22199219 45.14273438 -49.72460938 44.63671875 C-46.30105528 41.19078848 -42.72299309 37.98126753 -39.05053711 34.80322266 C-35.67608454 31.83576145 -32.44224721 28.72235011 -29.1875 25.625 C-23.80286461 20.53527618 -18.34680981 15.69169219 -12.55078125 11.07421875 C-8.21819105 7.55108644 -4.11353285 3.77445639 0 0 Z " fill="#FCED9E" transform="translate(178,58)"/>
<path d="M0 0 C3.10377951 1.19418467 5.03245238 3.14873841 7.453125 5.41015625 C8.34515625 6.23644531 9.2371875 7.06273437 10.15625 7.9140625 C10.83171875 8.55214844 11.5071875 9.19023438 12.203125 9.84765625 C10.42079214 14.96217662 7.46546802 19.21258746 4.48046875 23.67578125 C2.30971383 26.97131677 0.50362516 30.11578623 -0.796875 33.84765625 C-3.84656143 32.40786405 -6.56821347 30.72146352 -9.34375 28.80859375 C-10.18808594 28.22851562 -11.03242188 27.6484375 -11.90234375 27.05078125 C-12.77503906 26.4475 -13.64773437 25.84421875 -14.546875 25.22265625 C-15.87912109 24.30613281 -15.87912109 24.30613281 -17.23828125 23.37109375 C-19.42604651 21.86553486 -21.6121716 20.35765316 -23.796875 18.84765625 C-21.86112216 17.38906799 -19.92955535 15.93964052 -17.9375 14.55859375 C-13.07515141 11.12280198 -9.28969792 7.25645164 -5.4609375 2.703125 C-3.64040403 0.67318744 -2.76732109 -0.2346207 0 0 Z " fill="#675B44" transform="translate(216.796875,25.15234375)"/>
<path d="M0 0 C0.8971875 0.309375 0.8971875 0.309375 1.8125 0.625 C0.5 2.125 0.5 2.125 -1.1875 3.625 C-2.1775 3.625 -3.1675 3.625 -4.1875 3.625 C-5.78690482 9.16533831 -5.70482723 14.92340225 -4.625 20.5625 C-1.31963576 25.30497913 5.72033923 26.21897043 11.01953125 27.7421875 C15.12505028 29.03987603 19.07776829 30.68876997 23.05078125 32.34375 C33.59305477 35.93447244 43.91909661 37.15123621 55 37.6875 C57.57725624 37.81579122 60.15413118 37.95207782 62.73046875 38.09765625 C64.41305786 38.17898804 64.41305786 38.17898804 66.12963867 38.26196289 C68.8125 38.625 68.8125 38.625 70.8125 40.625 C66.88391081 40.67512431 62.95545016 40.71105502 59.02661133 40.73486328 C57.04697104 40.74964917 55.06741937 40.77508592 53.08789062 40.80078125 C42.49610026 40.85441057 33.06673184 39.63316354 23.0625 36.1875 C21.24492188 35.57068359 21.24492188 35.57068359 19.390625 34.94140625 C16.91578949 34.03090454 14.54769155 33.08839013 12.14453125 32.0234375 C9.40297099 30.87281784 7.15150335 30.16306869 4.25 29.6875 C-1.13985553 28.55810949 -4.75608763 26.58126357 -8.0625 22.0625 C-9.65814614 17.18691456 -9.88199513 12.70538287 -9.1875 7.625 C-4.88229023 -0.83696404 -4.88229023 -0.83696404 0 0 Z " fill="#453215" transform="translate(33.1875,190.375)"/>
<path d="M0 0 C2.20581448 2.20581448 2.51587547 3.25780129 3.2890625 6.2109375 C3.61777344 7.46003906 3.61777344 7.46003906 3.953125 8.734375 C4.17484375 9.60578125 4.3965625 10.4771875 4.625 11.375 C4.85445312 12.23867187 5.08390625 13.10234375 5.3203125 13.9921875 C6.32273557 17.85867649 7 20.96386006 7 25 C2.11209834 24.88286074 -1.07319741 24.73371871 -5 21.625 C-7.72221661 18.05209069 -8.15461089 15.43675195 -8.1875 11.0625 C-8.20167969 10.20785156 -8.21585938 9.35320312 -8.23046875 8.47265625 C-7.98103521 5.79653035 -7.49570068 4.22627395 -6 2 C-2.875 0.75 -2.875 0.75 0 0 Z " fill="#6A5D44" transform="translate(35,192)"/>
<path d="M0 0 C1.67542976 0.28604898 3.34385343 0.61781233 5 1 C5 3.64 5 6.28 5 9 C7.41645782 9.16687448 7.41645782 9.16687448 10 9 C10.66 8.34 11.32 7.68 12 7 C14.125 7.375 14.125 7.375 16 8 C16.91058531 11.07322544 17.08886184 13.80097361 17 17 C19.41645782 17.16687448 19.41645782 17.16687448 22 17 C22.66 16.34 23.32 15.68 24 15 C26.125 15.375 26.125 15.375 28 16 C28.33 17.32 28.66 18.64 29 20 C26.04770225 22.24936971 23.71874608 23.8470753 20.0625 24.625 C15.74171537 23.74320722 12.79237609 21.39546324 10 18 C10 17.01 10 16.02 10 15 C8.9275 14.938125 7.855 14.87625 6.75 14.8125 C3 14 3 14 0.5625 11.9375 C-1.55642801 7.95391534 -1.37287119 5.4744543 -1 1 C-0.67 0.67 -0.34 0.34 0 0 Z " fill="#141007" transform="translate(133,134)"/>
<path d="M0 0 C4.87712794 1.3454146 7.16472443 4.04648113 10.51171875 7.73828125 C12.43025756 9.79157879 14.32716112 11.39721848 16.625 13 C15.15681332 16.10742423 13.42475 18.90471739 11.5 21.75 C10.96117187 22.54921875 10.42234375 23.3484375 9.8671875 24.171875 C9.45726562 24.77515625 9.04734375 25.3784375 8.625 26 C7.965 24.68 7.305 23.36 6.625 22 C9.1 18.535 9.1 18.535 11.625 15 C10.1974411 11.69831248 8.46983943 9.60095359 5.8125 7.1875 C5.14605469 6.56230469 4.47960937 5.93710937 3.79296875 5.29296875 C1.69713527 3.80231111 1.69713527 3.80231111 -0.80859375 3.94140625 C-4.33632995 5.39653031 -6.26018111 7.87670033 -8.625 10.75 C-12.8108373 15.56930018 -17.03795124 20.15535412 -23.375 22 C-25.62890625 21.60546875 -25.62890625 21.60546875 -27.375 21 C-26.385 20.34 -25.395 19.68 -24.375 19 C-23.30765625 18.27103516 -23.30765625 18.27103516 -22.21875 17.52734375 C-21.4453125 17.00269531 -20.671875 16.47804688 -19.875 15.9375 C-18.71484375 15.14666016 -18.71484375 15.14666016 -17.53125 14.33984375 C-15.375 13 -15.375 13 -12.375 12 C-11.66608245 10.68864264 -11.00446893 9.35129238 -10.375 8 C-7.39252003 4.12828457 -4.74181973 1.40498362 0 0 Z " fill="#443115" transform="translate(216.375,22)"/>
<path d="M0 0 C4.36787565 1.18296632 4.36787565 1.18296632 6 3.8125 C6.39310741 6.95735925 6.47555213 8.94531671 4.9375 11.75 C1.74647308 13.49991799 -0.58913653 12.72612414 -4 11.8125 C-6 10.125 -6 10.125 -7 7.8125 C-6.875 4.6875 -6.875 4.6875 -6 1.8125 C-3 -0.1875 -3 -0.1875 0 0 Z " fill="#0E0B06" transform="translate(171,137.1875)"/>
<path d="M0 0 C1.9375 1.1875 1.9375 1.1875 3 3 C3.3125 6.0625 3.3125 6.0625 3 9 C1 11 1 11 -2.375 11.375 C-6 11 -6 11 -8.4375 9.3125 C-10.30408821 6.54994945 -10.58649994 5.26764255 -10 2 C-7.59316747 -2.24735152 -4.22244893 -1.05561223 0 0 Z " fill="#0D0C05" transform="translate(138,114)"/>
<path d="M0 0 C0.66 0.33 1.32 0.66 2 1 C-1.552678 5.33042643 -5.78858106 6.86914284 -10.875 8.8125 C-12.06029297 9.29879883 -12.06029297 9.29879883 -13.26953125 9.79492188 C-17.9080425 11.59707225 -21.04014453 12.4273539 -26 11 C-23.44617905 9.2974527 -21.52910993 8.35901126 -18.69140625 7.34375 C-17.86189453 7.04339844 -17.03238281 6.74304688 -16.17773438 6.43359375 C-14.88319336 5.97146484 -14.88319336 5.97146484 -13.5625 5.5 C-11.85468586 4.88759553 -10.14762573 4.27308342 -8.44140625 3.65625 C-7.68545166 3.38619141 -6.92949707 3.11613281 -6.15063477 2.83789062 C-3.95806294 2.03510145 -3.95806294 2.03510145 -1.84741211 0.83398438 C-1.23776611 0.55876953 -0.62812012 0.28355469 0 0 Z " fill="#573F1C" transform="translate(154,212)"/>
<path d="M0 0 C3.17920631 6.35841261 -2.84438346 19.36498171 -5 26 C-5.66 25.01 -6.32 24.02 -7 23 C-6.39038856 21.31162915 -5.71529194 19.64638382 -5 18 C-4.79227106 16.19354704 -4.64752151 14.37886862 -4.5625 12.5625 C-4.21140254 7.83225972 -3.51252054 3.51252054 0 0 Z " fill="#5A411D" transform="translate(221,117)"/>
<path d="M0 0 C0.33 0 0.66 0 1 0 C1.24250809 4.60727247 1.45732641 9.2147113 1.64697266 13.82446289 C1.71528238 15.3912159 1.79104745 16.95766283 1.87451172 18.52368164 C1.99343869 20.77971198 2.085186 23.03549754 2.171875 25.29296875 C2.21439392 25.98899704 2.25691284 26.68502533 2.30072021 27.40214539 C2.41530935 31.12524173 2.09950712 32.85244287 -0.01074219 35.98168945 C-0.66719727 36.64773193 -1.32365234 37.31377441 -2 38 C-1.93433838 37.37053467 -1.86867676 36.74106934 -1.80102539 36.0925293 C-1.03906082 28.33784303 -0.69353746 20.59855726 -0.4375 12.8125 C-0.39431641 11.57435547 -0.35113281 10.33621094 -0.30664062 9.06054688 C-0.20169508 6.04044738 -0.09953456 3.02028184 0 0 Z " fill="#7A592A" transform="translate(220,84)"/>
<path d="M0 0 C2.25998595 3.59462331 2.20868087 6.56595675 2.125 10.75 C2.10695312 11.92046875 2.08890625 13.0909375 2.0703125 14.296875 C2.03550781 15.63492188 2.03550781 15.63492188 2 17 C1.34 17 0.68 17 0 17 C-0.66 11.72 -1.32 6.44 -2 1 C-1.34 0.67 -0.68 0.34 0 0 Z " fill="#533B1A" transform="translate(220,67)"/>
<path d="M0 0 C0.66 0.99 1.32 1.98 2 3 C1.39031953 4.68834592 0.71162443 6.35202764 0 8 C-0.185625 9.8253125 -0.185625 9.8253125 -0.375 11.6875 C-0.58125 12.780625 -0.7875 13.87375 -1 15 C-3.0390625 16.20703125 -3.0390625 16.20703125 -5 17 C-1.92482916 5.47835991 -1.92482916 5.47835991 0 0 Z " fill="#5F451F" transform="translate(215,133)"/>
<path d="M0 0 C1.32 0.33 2.64 0.66 4 1 C1.35521821 5.0367722 -1.75175242 6.87587621 -6 9 C-4.47291037 5.56404834 -2.40072955 2.88087546 0 0 Z " fill="#553D1B" transform="translate(189,184)"/>
<path d="M0 0 C3.3 0.33 6.6 0.66 10 1 C9.34 1.66 8.68 2.32 8 3 C5.27130593 2.96712417 2.7033382 2.43602229 0 2 C0 1.34 0 0.68 0 0 Z " fill="#563F1B" transform="translate(59,225)"/>
<path d="M0 0 C0.66 0 1.32 0 2 0 C2 1.98 2 3.96 2 6 C1.01 6.33 0.02 6.66 -1 7 C-1.04254356 5.00045254 -1.04080783 2.99958364 -1 1 C-0.67 0.67 -0.34 0.34 0 0 Z " fill="#4B371B" transform="translate(25,200)"/>
<path d="M0 0 C0.66 0.33 1.32 0.66 2 1 C1.01 4.3 0.02 7.6 -1 11 C-1.66 10.01 -2.32 9.02 -3 8 C-2.1875 5.5 -2.1875 5.5 -1 3 C-0.67 2.01 -0.34 1.02 0 0 Z " fill="#3F2C13" transform="translate(217,132)"/>
<path d="M0 0 C1.53445094 3.06890187 0.54984289 5.70094266 0 9 C-0.99 8.67 -1.98 8.34 -3 8 C-2.25 2.25 -2.25 2.25 0 0 Z " fill="#443014" transform="translate(221,117)"/>
</svg>
