<?xml version="1.0" standalone="no"?>
<!DOCTYPE svg PUBLIC "-//W3C//DTD SVG 20010904//EN"
 "http://www.w3.org/TR/2001/REC-SVG-20010904/DTD/svg10.dtd">
<svg version="1.0" xmlns="http://www.w3.org/2000/svg"
 width="256.000000pt" height="256.000000pt" viewBox="0 0 256.000000 256.000000"
 preserveAspectRatio="xMidYMid meet">

<g transform="translate(0.000000,256.000000) scale(0.100000,-0.100000)"
fill="#000000" stroke="none">
<path d="M2110 2389 c-14 -6 -61 -45 -105 -88 -44 -42 -93 -82 -110 -88 -16
-6 -51 -18 -77 -28 -55 -19 -197 -103 -266 -157 -26 -21 -94 -74 -152 -119
-134 -103 -536 -508 -700 -703 -69 -82 -157 -186 -195 -231 -39 -44 -101 -120
-139 -168 -39 -48 -77 -87 -86 -87 -29 0 -67 -37 -94 -92 -66 -131 3 -302 136
-339 23 -6 102 -31 173 -55 233 -78 401 -90 650 -44 177 32 376 107 563 211
148 83 351 317 447 514 148 306 194 647 130 968 l-16 79 32 56 c17 32 47 78
65 103 54 74 49 93 -48 184 -102 96 -139 111 -208 84z m-56 -346 l105 -76 16
-70 c27 -119 37 -268 25 -397 -29 -342 -148 -613 -381 -872 -53 -59 -88 -85
-177 -137 -341 -194 -703 -262 -997 -186 -73 19 -186 61 -208 78 -10 7 -30 63
-47 131 l-31 118 41 53 c23 30 89 110 148 178 59 68 170 198 247 288 159 186
466 503 600 620 235 203 451 344 537 348 10 1 65 -33 122 -76z"/>
<path d="M1295 1406 c-23 -35 -10 -74 31 -93 30 -15 35 -15 58 1 33 21 34 59
1 91 -31 32 -70 32 -90 1z"/>
<path d="M1327 1213 c-4 -3 -7 -24 -7 -45 0 -47 43 -98 83 -98 18 0 27 -7 31
-24 7 -30 63 -66 102 -66 38 0 90 41 81 64 -10 25 -36 30 -57 11 -10 -9 -29
-15 -42 -13 -20 3 -23 9 -23 47 0 55 -23 75 -54 47 -28 -26 -61 -13 -61 24 0
16 -3 35 -6 44 -6 16 -35 22 -47 9z"/>
<path d="M1660 1170 c-27 -27 -25 -56 5 -85 26 -27 73 -33 93 -13 22 22 14 75
-14 97 -33 26 -58 27 -84 1z"/>
</g>
</svg>
