<svg width="24" height="24" xmlns="http://www.w3.org/2000/svg" version="1.1">
 <g>
  <title>Layer 1</title>
  <path d="m-214.48438,25.35303c1.47393,-0.0068 2.94785,-0.01572 4.42175,-0.02655c3.95063,-0.02251 7.9006,-0.01408 11.85125,0.0019c4.16715,0.0128 8.33426,0.00087 12.50141,-0.00694c6.99327,-0.00905 13.98627,0.00278 20.9795,0.02671c8.04364,0.0272 16.08664,0.01838 24.13026,-0.00913c6.95089,-0.02282 13.90159,-0.02584 20.85251,-0.01281c4.13186,0.00773 8.26343,0.00902 12.39528,-0.00768c3.88775,-0.01463 7.7747,-0.00411 11.66237,0.02447c1.41233,0.00651 2.82473,0.00488 4.23703,-0.00632c19.04587,-0.13682 34.24954,6.26655 48.16786,19.28051c13.21436,13.77908 17.755,29.71454 17.68921,48.37842c0.00571,1.47805 0.01268,2.9561 0.0208,4.43414c0.01782,3.98363 0.01678,7.96704 0.01105,11.9507c-0.00311,3.33962 0.00302,6.6792 0.00904,10.01882c0.01401,7.88599 0.01252,15.77187 0.0011,23.65786c-0.01147,8.10428 0.00259,16.20824 0.0294,24.31248c0.02223,6.98722 0.02877,13.97435 0.02292,20.96161c-0.00335,4.16032 -0.00107,8.32043 0.01625,12.48073c0.01559,3.91545 0.01138,7.83042 -0.0073,11.74586c-0.00366,1.4265 -0.00068,2.85304 0.00988,4.2795c0.12995,19.02139 -6.34189,34.82602 -19.68126,48.35801c-13.86363,12.88387 -29.71054,17.59938 -48.35156,17.45166c-1.47393,0.0068 -2.94785,0.01571 -4.42175,0.02655c-3.95063,0.02251 -7.9006,0.01407 -11.85124,-0.0019c-4.16716,-0.01281 -8.33427,-0.00088 -12.50142,0.00693c-6.99327,0.00905 -13.98627,-0.00278 -20.9795,-0.0267c-8.04364,-0.02721 -16.08664,-0.01839 -24.13026,0.00913c-6.95089,0.02281 -13.90159,0.02583 -20.85251,0.01281c-4.13186,-0.00773 -8.26343,-0.00902 -12.39528,0.00768c-3.88775,0.01462 -7.7747,0.0041 -11.66237,-0.02447c-1.41233,-0.00652 -2.82473,-0.00488 -4.23703,0.00631c-19.04587,0.13683 -34.24954,-6.26654 -48.16786,-19.2805c-13.21436,-13.77909 -17.755,-29.71454 -17.68921,-48.37842c-0.00571,-1.47806 -0.01268,-2.9561 -0.0208,-4.43415c-0.01782,-3.98363 -0.01678,-7.96703 -0.01105,-11.95069c0.0031,-3.33963 -0.00302,-6.67921 -0.00904,-10.01883c-0.01401,-7.88598 -0.01252,-15.77187 -0.0011,-23.65786c0.01147,-8.10428 -0.00259,-16.20823 -0.0294,-24.31247c-0.02223,-6.98723 -0.02877,-13.97435 -0.02292,-20.96161c0.00335,-4.16033 0.00107,-8.32044 -0.01625,-12.48073c-0.01559,-3.91546 -0.01138,-7.83043 0.0073,-11.74587c0.00366,-1.42649 0.00068,-2.85303 -0.00988,-4.27949c-0.12995,-19.02139 6.34189,-34.82602 19.68126,-48.35801c13.86363,-12.88387 29.71054,-17.59939 48.35156,-17.45166z" fill="#FEFEFE" id="svg_1"/>
  <path stroke="null" d="m21.08238,1.06311c0.3678,0.21674 0.66738,0.48933 0.97791,0.78021c0.12745,0.1122 0.12745,0.1122 0.25747,0.22667c0.60907,0.56076 0.60907,0.56076 0.66582,0.93793c-0.05027,0.34736 -0.15484,0.52928 -0.35487,0.8164c-0.06189,0.09265 -0.12379,0.18531 -0.18756,0.28077c-0.06114,0.09039 -0.12228,0.18078 -0.18527,0.27391c-0.37703,0.55356 -0.37703,0.55356 -0.48284,1.19469c0.03025,0.12069 0.06051,0.24138 0.09168,0.36572c0.19856,0.99517 0.23511,1.97032 0.23225,2.98064c-0.00012,0.07756 -0.00024,0.15512 -0.00036,0.23504c-0.005,1.21049 -0.07173,2.34877 -0.42748,3.51362c-0.02625,0.08819 -0.0525,0.17638 -0.07955,0.26724c-0.983,3.22435 -2.86081,6.26576 -5.8857,7.92494c-3.13539,1.64578 -7.01101,2.73841 -10.51516,1.68089c-0.4216,-0.13818 -0.83805,-0.28835 -1.25376,-0.44315c-0.38429,-0.14283 -0.76787,-0.25452 -1.16394,-0.36001c-0.65776,-0.19957 -1.09327,-0.50636 -1.47871,-1.07583c-0.30936,-0.58929 -0.35576,-1.19754 -0.25708,-1.84995c0.1922,-0.57269 0.44675,-1.04753 0.97791,-1.36536c0.07551,-0.02263 0.15102,-0.04526 0.22882,-0.06857c0.35008,-0.17021 0.53085,-0.43001 0.75521,-0.73602c0.0946,-0.12452 0.18947,-0.24884 0.28459,-0.37296c0.04867,-0.06366 0.09735,-0.12732 0.1475,-0.19291c0.23553,-0.30119 0.4845,-0.59016 0.73529,-0.87873c0.04877,-0.05627 0.09754,-0.11253 0.14778,-0.1705c0.09796,-0.11296 0.19598,-0.22587 0.29404,-0.33875c0.23537,-0.27177 0.46844,-0.54547 0.70111,-0.81954c0.04457,-0.05243 0.08914,-0.10486 0.13506,-0.15888c0.27746,-0.32743 0.54891,-0.65912 0.8184,-0.99314c0.46162,-0.56579 0.9575,-1.09633 1.45727,-1.6283c0.11488,-0.12446 0.22823,-0.25035 0.34045,-0.3772c0.65419,-0.7387 1.3477,-1.43604 2.04635,-2.13271c0.20756,-0.20722 0.41433,-0.4152 0.62108,-0.62323c0.71606,-0.7171 1.43411,-1.39899 2.23964,-2.01662c0.06035,-0.0474 0.1207,-0.09481 0.18288,-0.14365c0.30787,-0.24115 0.62049,-0.47622 0.93226,-0.71233c0.14869,-0.11359 0.29571,-0.22934 0.44264,-0.3452c0.98323,-0.76399 2.01634,-1.39051 3.19731,-1.79166c0.83846,-0.31124 1.36327,-0.88819 1.94348,-1.55023c0.40448,-0.38075 0.88808,-0.45337 1.41809,-0.33325zm-5.81856,4.37038c-0.13484,0.10407 -0.13484,0.10407 -0.27241,0.21024c-0.25217,0.1952 -0.50342,0.39152 -0.75439,0.58825c-0.08637,0.06706 -0.08637,0.06706 -0.17448,0.13548c-1.30576,1.01573 -2.46873,2.19906 -3.63937,3.36327c-0.05305,0.05264 -0.1061,0.10529 -0.16075,0.15953c-0.5335,0.53007 -1.06067,1.06139 -1.5503,1.6327c-0.2324,0.26957 -0.47767,0.52687 -0.7215,0.78611c-0.43632,0.46772 -0.84971,0.94785 -1.25142,1.44575c-0.25838,0.31692 -0.5231,0.62773 -0.78997,0.93754c-0.04922,0.05719 -0.09844,0.11439 -0.14915,0.17331c-0.31236,0.36218 -0.6271,0.72221 -0.9431,1.08124c-0.16005,0.18321 -0.31782,0.36821 -0.47547,0.55349c-0.20749,0.24298 -0.42246,0.47297 -0.64787,0.69944c-0.53454,0.53696 -0.53454,0.53696 -0.75272,1.23465c0.04917,0.44573 0.18667,0.85291 0.34275,1.27141c0.07449,0.2287 0.08022,0.44642 0.0891,0.68563c0.03239,0.20416 0.03239,0.20416 0.16502,0.37182c0.46366,0.27582 0.95054,0.4348 1.46686,0.58516c0.06812,0.01999 0.13624,0.03998 0.20642,0.06057c0.76755,0.21906 1.53563,0.39957 2.33614,0.42706c0.12114,0.00503 0.24229,0.01006 0.3671,0.01524c1.61099,0.04543 3.1061,-0.26605 4.62024,-0.79545c0.09717,-0.033 0.09717,-0.033 0.1963,-0.06667c0.99915,-0.34106 1.9221,-0.7702 2.83522,-1.2987c0.10123,-0.05858 0.20245,-0.11717 0.30674,-0.17753c2.66187,-1.61525 4.16683,-4.9536 4.88649,-7.84779c0.21042,-0.96116 0.21233,-1.9365 0.21583,-2.91587c0.00038,-0.06548 0.00075,-0.13096 0.00114,-0.19843c0.03296,-1.69127 0.03296,-1.69127 -0.42287,-3.29422c-0.1772,-0.17509 -0.1772,-0.17509 -0.39384,-0.3181c-0.07746,-0.05475 -0.15493,-0.1095 -0.23474,-0.16591c-0.12149,-0.08326 -0.12149,-0.08326 -0.24543,-0.16819c-0.08061,-0.05664 -0.16123,-0.11327 -0.24429,-0.17162c-1.5732,-1.10246 -2.82028,-0.08481 -4.21132,1.00059z" fill="#050504" id="svg_4"/>
  <path stroke="null" d="m12.50201,12.46887c0.15256,0.02776 0.30448,0.05996 0.45528,0.09705c0,0.25621 0,0.51242 0,0.7764c0.22004,0.01619 0.22004,0.01619 0.45528,0c0.0601,-0.06405 0.12019,-0.12811 0.18211,-0.1941c0.1935,0.03639 0.1935,0.03639 0.36423,0.09705c0.08292,0.29826 0.09915,0.56298 0.09106,0.87345c0.22004,0.01619 0.22004,0.01619 0.45528,0c0.0601,-0.06405 0.12019,-0.12811 0.18211,-0.1941c0.1935,0.03639 0.1935,0.03639 0.36423,0.09705c0.03005,0.12811 0.0601,0.25621 0.09106,0.3882c-0.26883,0.2183 -0.48089,0.37336 -0.81382,0.44885c-0.39344,-0.08558 -0.66199,-0.31343 -0.91626,-0.64295c0,-0.09608 0,-0.19216 0,-0.29115c-0.09766,-0.00601 -0.19532,-0.01201 -0.29593,-0.0182c-0.34146,-0.07885 -0.34146,-0.07885 -0.56341,-0.27902c-0.19294,-0.3866 -0.17623,-0.62724 -0.14228,-1.06148c0.03005,-0.03203 0.0601,-0.06405 0.09106,-0.09705z" fill="#141007" id="svg_10"/>
  <path stroke="null" d="m13.17825,10.30518c0.40574,0.09683 0.40574,0.09683 0.55735,0.31206c0.03652,0.25741 0.04417,0.42013 -0.0987,0.6497c-0.29642,0.14323 -0.51338,0.0799 -0.83022,0.00512c-0.18578,-0.13812 -0.18578,-0.13812 -0.27867,-0.32741c0.01161,-0.25579 0.01161,-0.25579 0.09289,-0.49111c0.27867,-0.1637 0.27867,-0.1637 0.55735,-0.14836z" fill="#0E0B06" id="svg_12"/>
  <path stroke="null" d="m16.75959,12.70529c0.1549,0.10678 0.1549,0.10678 0.23985,0.26975c0.02498,0.27537 0.02498,0.27537 0,0.5395c-0.1599,0.17983 -0.1599,0.17983 -0.42972,0.21355c-0.28981,-0.03372 -0.28981,-0.03372 -0.48469,-0.18545c-0.14923,-0.2484 -0.17181,-0.3637 -0.12492,-0.65752c0.19242,-0.38191 0.46191,-0.27475 0.79949,-0.17983z" fill="#0D0C05" id="svg_13"/>
  <path fill="none" id="svg_24" d="m82.80305,-44.32022c0,0 -0.02582,-0.32037 -2,0c-6.24289,1.01308 -13.11499,3.53899 -22,6c-6.09506,1.68824 -7.29289,3.29289 -8,4c-0.70711,0.70711 -3,2 -5,6c-2,4 -4.71413,9.21167 -7,12c-0.89659,1.09367 -1.77025,3.02675 -2,4c-0.51375,2.17625 -2.53493,3.31075 -4,5c-2.07193,2.38895 -2.14429,3.93414 -3,6c-1.21014,2.92156 -3.63872,5.44298 -6,7c-4.49576,2.96449 -5,4 -8,5c-3,1 -6.70267,3.54136 -10,5c-3.77064,1.66801 -6.88152,2.19028 -10,4c-1.934,1.12234 -3.58578,2.58578 -5,4c-0.70711,0.70711 -2.04291,-0.28979 -3,0c-3.45084,1.04483 -4.47427,3.14935 -5,4c-1.17557,1.90211 -3.61732,2.07612 -4,3c-0.5412,1.30656 -2.34619,0.70546 -4,3c-2.61491,3.62798 -3.05628,6.23665 -4,8c-1.70131,3.17892 -4.1731,2.85273 -5,4c-1.30745,1.81399 -2,2.99999 -3,3.99999c-2,2 -4,4 -6,7c-2,3 -3.391,6.76952 -7,9c-2.68999,1.66251 -5,2 -7,4c0,0 -1.00749,0.87782 -2,1c-4.09221,0.50377 -9.9617,3.24516 -22,5c-7.97794,1.16295 -11,1 -13,1c-1,0 -2,0 -5,0l-3,0l-1,0"/>
  <path fill="none" id="svg_25" d="m-32.51264,30.39392c0,-1 0.79486,-2.11648 2,-4c3.45098,-5.39358 10.92817,-12.09971 22,-20c9.93634,-7.09007 16.08031,-12.37641 20,-14c0.92388,-0.38268 1,0 2,-1c1,-1 5.21168,-3.71412 8,-6c3.28101,-2.68979 5,-5 7,-8l2,-1l2,-2"/>
  <path id="svg_28" d="m83.66499,9" opacity="NaN" stroke="null" fill="#050504"/>
 </g>

</svg>